<?xml version="1.0" standalone="no"?>
<!DOCTYPE svg PUBLIC "-//W3C//DTD SVG 20010904//EN"
 "http://www.w3.org/TR/2001/REC-SVG-20010904/DTD/svg10.dtd">
<svg version="1.0" xmlns="http://www.w3.org/2000/svg"
 width="500.000000pt" height="500.000000pt" viewBox="0 0 500.000000 500.000000"
 preserveAspectRatio="xMidYMid meet">
<metadata>
Created by potrace 1.14, written by Peter Selinger 2001-2017
</metadata>
<g transform="translate(0.000000,500.000000) scale(0.100000,-0.100000)"
fill="#000000" stroke="none">
<path d="M1871 4893 c53 -92 159 -301 159 -311 0 -7 -12 -5 -32 6 -74 41 -588
192 -588 173 0 -4 10 -17 23 -28 66 -60 264 -272 317 -339 53 -67 79 -102 94
-125 l17 -26 -98 -36 c-181 -66 -434 -134 -603 -162 -19 -3 -61 -10 -92 -16
-32 -5 -70 -12 -85 -15 -16 -2 -39 -7 -53 -9 -14 -3 -41 -7 -60 -10 -53 -8
-97 -15 -132 -20 -92 -13 -106 -17 -110 -33 -7 -25 4 -421 17 -647 2 -38 6
-126 10 -195 3 -69 8 -143 10 -165 3 -22 7 -67 9 -100 9 -124 19 -184 51 -340
88 -415 219 -782 377 -1060 56 -97 188 -307 221 -350 4 -5 40 -53 79 -105 125
-168 278 -329 443 -468 50 -41 95 -80 100 -86 6 -6 44 -38 85 -70 41 -33 77
-63 80 -67 8 -10 250 -159 304 -186 73 -37 90 -37 164 -1 157 76 444 277 547
382 11 12 43 39 70 61 110 88 308 301 410 440 36 50 71 97 78 106 34 43 57 79
57 88 0 5 4 11 9 13 14 5 187 300 234 400 105 221 229 577 263 758 3 14 11 50
19 80 7 30 19 82 24 115 6 33 13 71 16 84 2 12 7 44 10 70 3 25 8 64 10 86 7
46 11 106 20 260 22 372 29 545 30 735 l0 175 -85 17 c-47 9 -103 19 -125 22
-72 10 -278 44 -365 61 -209 40 -544 139 -710 210 -200 86 -311 136 -427 192
-141 70 -157 74 -190 62 -12 -4 -23 -4 -25 0 -8 21 -150 135 -263 211 -18 12
-295 178 -328 197 -4 3 2 -13 14 -34z m-206 -271 c-3 -3 -11 0 -18 7 -9 10 -8
11 6 5 10 -3 15 -9 12 -12z m670 -97 c17 -14 21 -21 10 -16 -11 6 -38 27 -60
47 -45 41 -2 14 50 -31z m60 -55 c3 -6 -1 -7 -9 -4 -18 7 -21 14 -7 14 6 0 13
-4 16 -10z m-195 -470 c8 -5 11 -12 8 -16 -10 -9 -38 3 -38 16 0 12 10 13 30
0z m205 -329 c3 -5 1 -12 -5 -16 -5 -3 -10 1 -10 9 0 18 6 21 15 7z m1135
-580 c0 -30 -30 -76 -65 -100 -40 -27 -50 -27 -31 1 19 27 21 84 4 95 -11 7
16 14 80 22 6 0 12 -8 12 -18z m108 -25 c26 -39 23 -55 -19 -80 -37 -22 -44
-16 -32 21 6 15 9 43 7 61 -3 42 15 41 44 -2z m-438 -76 c0 -5 -2 -10 -4 -10
-3 0 -8 5 -11 10 -3 6 -1 10 4 10 6 0 11 -4 11 -10z m-1670 -59 c0 -11 -26
-22 -34 -14 -12 12 -5 23 14 23 11 0 20 -4 20 -9z"/>
</g>
</svg>
